<svg xmlns="http://www.w3.org/2000/svg" height="800" width="1200" viewBox="-9.816465 -1.9003775 85.07603 11.402265"><defs><clipPath clipPathUnits="userSpaceOnUse" id="a"><path d="M0 99.21h312.79V0H0z"/></clipPath></defs><g clip-path="url(#a)" transform="matrix(.25121 0 0 -.25121 -6.15794 16.23345)" stroke-width="1.4043"><path d="M94.2088 52.1812v.069c0 4.647-3.383 8.508-8.133 8.508-4.749 0-8.064-3.793-8.064-8.44v-.068c0-4.648 3.383-8.509 8.133-8.509 4.75 0 8.064 3.793 8.064 8.44m-20.605 0v.069c0 6.732 5.194 12.37 12.541 12.37 7.346 0 12.472-5.57 12.472-12.302v-.068c0-6.733-5.194-12.371-12.541-12.371s-12.472 5.571-12.472 12.302M103.2233 64.21h4.477l7.278-11.311 7.279 11.311h4.476V40.29h-4.203v17.154l-7.552-11.277h-.137l-7.483 11.208V40.29h-4.135zm26.8552 0h4.648l7.21-18.384 7.176 18.384h4.545l-9.944-24.091h-3.691zm46.337-12.4386c3.178 0 5.16 1.777 5.16 4.272v.068c0 2.802-2.017 4.271-5.16 4.271h-4.887v-8.611zm-9.09 12.439h9.432c5.569 0 9.089-3.179 9.089-7.996v-.069c0-5.365-4.305-8.167-9.568-8.167h-4.75v-7.689h-4.203zm33.9016-13.6347c-.273 2.665-1.845 4.75-4.579 4.75-2.528 0-4.306-1.948-4.681-4.75zm-13.361-1.333v.068c0 5.16 3.657 9.398 8.816 9.398 5.741 0 8.646-4.511 8.646-9.705 0-.377-.034-.752-.068-1.162h-13.259c.444-2.938 2.529-4.579 5.194-4.579 2.016 0 3.451.752 4.886 2.153l2.427-2.153c-1.709-2.05-4.067-3.383-7.381-3.383-5.229 0-9.261 3.792-9.261 9.363m21.5386-3.9641v9.5h-2.29v3.554h2.29v4.955h4.135v-4.955h4.852v-3.554h-4.852v-8.85c0-1.607.82-2.256 2.221-2.256.922 0 1.743.205 2.563.615v-3.383c-1.026-.581-2.187-.923-3.725-.923-3.041 0-5.194 1.334-5.194 5.297m12.4725 13.0542h4.135v-4.067c1.127 2.699 3.212 4.545 6.389 4.409v-4.375h-.238c-3.623 0-6.151-2.357-6.151-7.141v-6.869h-4.135zm27.2003-9.1242v.068c0 3.178-2.29 5.81-5.536 5.81-3.315 0-5.434-2.598-5.434-5.741v-.069c0-3.144 2.29-5.809 5.502-5.809 3.35 0 5.468 2.632 5.468 5.741m-15.104 0v.068c0 5.161 4.101 9.432 9.636 9.432 5.536 0 9.603-4.203 9.603-9.363v-.069c0-5.125-4.101-9.397-9.671-9.397-5.502 0-9.568 4.203-9.568 9.329m22.7753 9.1242h4.135v-2.734c1.162 1.606 2.734 3.11 5.502 3.11 2.597 0 4.408-1.265 5.365-3.179 1.469 1.914 3.382 3.179 6.116 3.179 3.93 0 6.322-2.495 6.322-6.903v-11.516h-4.135v10.251c0 2.871-1.332 4.409-3.656 4.409-2.255 0-3.861-1.573-3.861-4.477v-10.183h-4.135v10.286c0 2.801-1.367 4.374-3.657 4.374-2.289 0-3.861-1.709-3.861-4.511v-10.149h-4.135z" fill="#003669"/><path d="M285.021 34.361H73.652v2.035h211.369z" fill="#63b32d"/><path d="M47.2467 36.2268h-19.939l7.479 27.903h18.151c2.626 0 4.67-.737 6.077-2.187 1.938-2 2.15-4.805 2.103-6.3-.107-7.855-9.653-10.784-15.646-10.784-.17 0-.339.002-.506.007 1.183-.798 2.273-1.109 3.817-1.548l-.055-.412-4.641-.058c1.262-.887 2.685-1.543 4.149-1.91l-.049-.413-4.642-.038c1.355-.699 2.824-1.373 4.127-1.593l-.031-.417-4.844-.08c1.217-.883 3.092-1.383 4.503-1.757z" fill="#003669"/><path d="M44.4468 34.3611h-19.934l.07.264 7.406 27.638h18.152c2.626 0 4.671-.736 6.077-2.188 1.939-2.001 2.15-4.805 2.103-6.298-.108-7.854-9.655-10.782-15.647-10.782-.17 0-.339.002-.507.007 1.183-.799 2.273-1.11 3.819-1.55l-.056-.412-4.642-.058c1.267-.889 2.692-1.545 4.152-1.91l-.049-.413-4.645-.038c1.349-.697 2.814-1.369 4.128-1.593l-.031-.417-4.842-.079c1.233-.891 3.169-1.404 4.499-1.758z" fill="#003669"/><path d="M57.9005 53.7867c.046 1.43-.152 4.106-1.984 5.996-1.325 1.368-3.269 2.062-5.776 2.062l-.081-.001h-17.748l-7.253-27.063h17.852c-1.325.401-2.731.947-3.626 1.799l.141.362 3.91.064c-1.195.417-2.42 1.045-3.525 1.634l.096.395 4.132.033c-1.247.461-2.44 1.123-3.505 1.95l.125.376 3.88.049c-1.133.363-2.105.784-3.186 1.635l.144.374c.38-.025.776-.037 1.177-.037 5.833 0 15.124 2.816 15.227 10.372" fill="#fd0" fill-rule="evenodd"/><path d="M42.5789 57.8672c-4.801-.117-9.321-.394-10.878-5.965 1.117 1.082 2.588 2.479 4.226 2.291-2.217-.981-3.733-2.738-4.892-5.006 1.483 1.317 3.494 2.295 4.963 2.185-2.934-1.514-4.963-3.198-5.741-5.106 1.841 1.481 4.078 2.443 5.725 2.413-4.593-1.949-9.25-7.238-5.205-9.796 1.434-.905 2.809-1.007 4.48-1.195-1.618.761-2.504 1.604-2.944 2.398-1.768 3.196 4.517 5.452 6.556 6.049 4.279 1.056 8.971 1.63 13.974 1.839l.936 2.355-1.317-.074-.087.594-1.331-.996-.15 1.149-1.268-1.175-.067.009-.206 1.401-1.86-1.331-.107 1.24-1.171-.859-.1.481 1.898 2.222h.097l.075-1.817 1.54 1.415.076-.007.235-1.364 1.488 1.351.097-1.39 1.525 1.088.083-1.096 2.733 3.388-8.414.84.024 1.45-2.917.566c.087.654.813 1.396 1.121 1.926-1.336-.091-2.22-.588-3.197-1.473m3.1-1.678c.719 0 .719-.989 0-.989-.72 0-.72.989 0 .989" fill="#e4001f" fill-rule="evenodd"/></g></svg>