<svg viewBox="900 30 350 100" xmlns="http://www.w3.org/2000/svg">
  <g fill="white">
    <path d="M1074.04 75.405l7.10128 0 0 -41.2478 -7.10128 0 0 41.2478zm-82.5646 -41.816l-0.0345542 0c-2.2084,0.00921446 -4.00291,1.80911 -4.00291,4.01981 0,2.21685 1.80373,4.01981 4.01981,4.01981 2.21608,0 4.01981,-1.80296 4.01981,-4.01981 0,-2.2107 -1.79375,-4.01059 -4.00215,-4.01981zm-16.97 0.56285l-12.2383 27.6802 -12.2921 -27.6802 -8.77677 0 0 41.2585 6.66052 0 0 -18.6255c0,-3.94916 0,-7.72095 -0.294863,-11.9058l0.294863 0c1.35529,4.1849 2.53398,6.83713 4.36151,10.4323l9.9017 20.5114 9.90247 -20.5114c1.82677,-3.59517 2.88797,-6.2474 4.41987,-10.4323l0.294863 0c-0.412347,4.1849 -0.412347,7.95669 -0.412347,11.9058l0 18.6255 6.71888 0 0 -41.2585 -8.54027 0zm87.0713 13.7833l0 -3.47462 -6.67434 0 0 30.9445 6.67434 0 0 -18.3345c0,-4.61107 1.95961,-6.85172 5.99247,-6.85172l3.56676 0 0 -6.3311 -2.13545 0c-3.36251,0 -5.91875,1.80373 -7.42378,4.04745zm-24.836 -4.37073c6.84097,0 11.7768,3.68348 13.8985,10.3716 0.664977,2.16079 1.0013,4.64562 1.0013,7.39l0 1.16256 -23.3694 0c0.412347,4.11349 3.50687,8.26537 8.75604,8.26537 4.73777,0 6.61675,-2.76818 6.97995,-4.40374l0.102127 -0.461491 7.14812 0 -0.211933 0.749443c-1.30769,4.63487 -5.67841,9.58765 -14.0183,9.58765 -9.11003,0 -15.4718,-6.71504 -15.4718,-16.3303 0,-9.61529 6.24433,-16.3311 15.1854,-16.3311zm8.18014 13.4523c-0.492206,-5.08177 -3.44621,-7.98049 -8.18014,-7.98049 -5.36358,0 -8.09183,4.02672 -8.47193,7.98049l16.6521 0zm-33.3018 18.3882l6.67434 0 0 -41.2478 -6.67434 0 0 41.2478zm-11.7492 0l6.67434 0 0 -41.2478 -6.67434 0 0 41.2478zm-11.7492 0l6.67434 0 0 -30.9445 -6.67434 0 0 30.9445z" />
  </g>

  <g fill="white">
    <path d="M1114.78 75.4042l0 -17.4752c0,-5.2054 3.02618,-8.56868 7.7102,-8.56868 4.30315,0 6.22206,2.11318 6.22206,6.85172l0 19.1922 6.67434 0 0 -19.765c0,-7.76241 -4.07202,-12.0372 -11.4659,-12.0372 -3.75489,0 -6.99224,1.32919 -9.14074,3.70114l0 -2.84266 -6.67434 0 0 30.9437 6.67434 0zm-24.8767 -21.2386l18.0772 21.2317 0 0.00691084 -8.8336 0 -18.0012 -21.1779 17.5228 -20.0691 8.89579 0 -17.661 20.0084zm94.4536 21.2393l6.67434 0 0 -41.2478 -6.67434 0 0 41.2478zm-11.7507 0l6.67434 0 0 -41.2478 -6.67434 0 0 41.2478zm-18.6101 -31.8406c9.27973,0 15.7583,6.71581 15.7583,16.3311 0,9.61529 -6.47853,16.3303 -15.7583,16.3303 -9.27743,0 -15.7575,-6.71504 -15.7575,-16.3303 0,-9.61529 6.48007,-16.3311 15.7575,-16.3311zm9.08546 16.3311c0,-7.30399 -4.56269,-10.5728 -9.08546,-10.5728 -4.522,0 -9.08315,3.26883 -9.08315,10.5728 0,7.30323 4.56116,10.5728 9.08315,10.5728 4.52276,0 9.08546,-3.2696 9.08546,-10.5728z" />
  </g>

  <g fill="white">
    <path d="M1036.6 107.391l3.77332 0 0 -18.8159 -3.77332 0 0 18.8159zm-42.9532 -15.7675l5.78975 0 0 15.7675 3.74721 0 0 -15.7675 5.78898 0 0 -3.04845 -15.3259 0 0 3.04845zm26.2451 15.7675l3.77332 0 0 -7.40535 8.36289 0 0 -3.04845 -8.36289 0 0 -5.31367 9.32119 0 0 -3.04845 -13.0945 0 0 18.8159zm128.293 -18.8159l-3.77409 0 0 18.8159 12.3044 0 0 -3.04922 -8.53029 0 0 -15.7667zm32.3266 8.88044l4.00138 0c2.45181,0 3.69269,-0.980572 3.69269,-2.91561 0,-1.9358 -1.24088,-2.91638 -3.69269,-2.91638l-4.00138 0 0 5.83199zm7.56584 2.42955l4.68171 7.50595 -4.14344 0 -4.22099 -6.91315 -3.88313 0 0 6.91315 -3.6973 0 0 -18.8159 8.08722 0c4.46594,0 7.02603,2.17384 7.02603,5.96483 0,2.50557 -1.43515,4.48975 -3.85011,5.34515zm-24.9735 -0.391615l8.77447 0 0 -3.04845 -8.77447 0 0 -4.82147 9.91476 0 0 -3.04845 -13.6113 0 0 18.8159 13.7142 0 0 -3.04922 -10.0177 0 0 -4.84834zm-51.7208 0l8.776 0 0 -3.04845 -8.776 0 0 -4.82147 9.91553 0 0 -3.04845 -13.6113 0 0 18.8159 13.715 0 0 -3.04922 -10.0192 0 0 -4.84834zm-62.7881 0l8.776 0 0 -3.04845 -8.776 0 0 -4.82147 9.91476 0 0 -3.04845 -13.6113 0 0 18.8159 13.7157 0 0 -3.04922 -10.0192 0 0 -4.84834zm43.0016 4.84834l3.58903 0c3.53067,0 5.55632,-2.31744 5.55632,-6.35951 0,-4.04054 -2.02565,-6.35875 -5.55632,-6.35875l-3.58903 0 0 12.7183zm12.997 -6.35951c0,5.6285 -3.781,9.40873 -9.40796,9.40873l-7.2848 0 0 -18.8159 7.2848 0c5.62696,0 9.40796,3.78023 9.40796,9.4072zm-39.1192 6.35951l3.58903 0c3.53144,0 5.55632,-2.31744 5.55632,-6.35951 0,-4.04054 -2.02488,-6.35875 -5.55632,-6.35875l-3.58903 0 0 12.7183zm12.997 -6.35951c0,5.6285 -3.78023,9.40873 -9.40796,9.40873l-7.2848 0 0 -18.8159 7.2848 0c5.62773,0 9.40796,3.78023 9.40796,9.4072zm54.1764 -5.57168l-2.90409 7.45296 5.75827 0 -2.85418 -7.45296zm9.62988 14.9804l-3.87929 0 -1.73232 -4.53198 -8.1118 0 -1.76073 4.53198 -3.72264 0 7.56354 -18.8159 4.08124 0 7.562 18.8159zm-130.551 0l3.77255 0 0 -18.8159 -3.77255 0 0 18.8159zm-31.3445 -9.93549l4.00291 0c2.45028,0 3.69269,-0.980572 3.69269,-2.91561 0,-1.9358 -1.24242,-2.91638 -3.69269,-2.91638l-4.00291 0 0 5.83199zm7.56661 2.42955l4.68095 7.50595 -4.14344 0 -4.21945 -6.91315 -3.88466 0 0 6.91315 -3.69653 0 0 -18.8159 8.08799 0c4.46441,0 7.02526,2.17384 7.02526,5.96483 0,2.50557 -1.43438,4.48975 -3.85011,5.34515zm-24.9743 -0.391615l8.776 0 0 -3.04845 -8.776 0 0 -4.82147 9.91553 0 0 -3.04845 -13.6113 0 0 18.8159 13.715 0 0 -3.04922 -10.0192 0 0 -4.84834zm-10.6058 1.96268l3.67887 0c-0.714121,3.96836 -3.52914,6.2451 -7.72249,6.2451 -5.30215,0 -8.86354,-3.91538 -8.86354,-9.74429 0,-5.79743 3.56139,-9.69208 8.86354,-9.69208 4.19872,0 7.01297,2.27674 7.72249,6.2451l-3.67887 0c-0.298702,-1.47278 -1.24395,-3.19665 -4.04361,-3.19665 -3.15518,0 -5.03877,2.48253 -5.03877,6.64363 0,4.19258 1.88359,6.69584 5.03877,6.69584 2.79966,0 3.74491,-1.72387 4.04361,-3.19665z" />
  </g>
</svg>