<svg xmlns="http://www.w3.org/2000/svg" width="300" height="290" viewBox="4 7 127 123" style="shape-rendering:geometricPrecision; text-rendering:geometricPrecision; image-rendering:optimizeQuality; fill-rule:evenodd; clip-rule:evenodd">
 <defs>
  <style type="text/css">
   <![CDATA[
    .filLogo1 {fill:#003B25;fill-rule:nonzero}
    .filLogo2 {fill:#2C0032;fill-rule:nonzero}
    .filLogo3 {fill:#494949;fill-rule:nonzero}
    .filLogo4 {fill:#EF4637;fill-rule:nonzero}
    .filLogo5 {fill:white;fill-rule:nonzero}
    .filLogo6 {fill:#373435;fill-rule:nonzero}
    .filText {fill:#373435;fill-rule:nonzero}
    .filBG {fill:black;fill-opacity:0}
   ]]>
  </style>
 </defs>
 <g id="WorkspaceStudioLogo">
    <polygon class="filLogo6" points="4.72625,7.35928 4.72625,111.404 130.077,111.404 130.077,7.35928 "/>
    
    <polygon class="filLogo2" points="55.7552,72.3504 79.7465,72.3504 67.8568,33.298 "/>
    <polygon class="filLogo4" points="43.8654,111.404 67.8568,111.404 55.7552,72.3504 "/>
    <polygon class="filLogo1" points="67.8568,111.404 91.8482,111.404 79.7465,72.3504 "/>
    <polygon class="filLogo3" points="55.7552,72.3504 67.8568,111.404 79.7465,72.3504 "/>
    
    <path class="filLogo5" d="M93.4861 111.389l-1.36297 0 -24.2724 -78.0933 -23.7841 78.0933 -1.36297 0 -28.5449 -91.4335c-1.15949,-3.70268 -2.40037,-6.57452 -3.70268,-8.56868 -1.30231,-1.97036 -3.21508,-2.96706 -5.71757,-2.96706l0 -1.04431 20.7325 0 0 1.04431c-2.01413,0 -3.03156,0.854641 -3.03156,2.56316 0,1.02127 0.305613,2.56392 0.956,4.65253l23.235 74.4851 19.1453 -62.9255 -1.85211 -5.98095c-1.62712,-5.2461 -3.19358,-8.6877 -4.67941,-10.3256 -1.48506,-1.66167 -3.17361,-2.46871 -5.04568,-2.46871l0 -1.04431 20.5083 0 0 1.04431c-1.97343,0 -2.97013,0.996697 -2.97013,2.96706 0,0.617369 0.406972,2.20763 1.24088,4.81839l23.1943 74.2002 23.1936 -75.5294c0.0207325,-0.189664 0.0614297,-0.308684 0.102127,-0.356292l0.895338 -3.53682c0,-1.70851 -1.01743,-2.56316 -3.09299,-2.56316l0 -1.04431 12.8181 0 0 1.04431c-3.49996,0.023804 -6.2666,3.34715 -8.28073,9.92167l-28.3214 93.0476z"/>

    <path class="filText" d="M13.7541 129.806l-0.134378 0 -2.40421 -7.67181 -2.35506 7.67181 -0.135145 0 -2.82654 -8.98256c-0.114413,-0.363971 -0.23804,-0.64578 -0.366275,-0.841587 -0.129002,-0.193504 -0.318667,-0.291791 -0.566689,-0.291791l0 -0.102895 2.05329 0 0 0.102895c-0.199647,0 -0.300238,0.083698 -0.300238,0.251862 0,0.100591 0.029947,0.251862 0.0944482,0.456884l2.30131 7.31782 1.89588 -6.18213 -0.183521 -0.587422c-0.161253,-0.515242 -0.316363,-0.853873 -0.463794,-1.01436 -0.146663,-0.163557 -0.314059,-0.242647 -0.499117,-0.242647l0 -0.102895 2.03102 0 0 0.102895c-0.195807,0 -0.294863,0.0982876 -0.294863,0.291791 0,0.0606619 0.0406972,0.21654 0.123627,0.473009l2.2967 7.29017 2.2967 -7.42071c0.00230361,-0.0184289 0.00614297,-0.029947 0.00998233,-0.0345542l0.0883052 -0.347846c0,-0.168164 -0.100591,-0.251862 -0.305613,-0.251862l0 -0.102895 1.26929 0 0 0.102895c-0.347078,0.00230361 -0.621208,0.328649 -0.820087,0.974429l-2.80504 9.14151zm8.61936 -10.3701c1.22092,0 2.21838,0.42924 2.99393,1.28695 0.774015,0.860784 1.16256,1.9312 1.16256,3.21585 0,1.654 -0.449205,3.04384 -1.34608,4.17492 -0.89841,1.128 -2.08708,1.69239 -3.57214,1.69239 -1.20249,0 -2.18997,-0.45458 -2.95554,-1.36604 -0.767872,-0.909928 -1.15258,-2.00338 -1.15258,-3.27881 0,-0.860784 0.185825,-1.7446 0.556707,-2.65146 0.368578,-0.905321 0.926053,-1.64401 1.67012,-2.21531 0.7433,-0.571296 1.62328,-0.85848 2.64301,-0.85848zm-0.0345542 9.83874c0.59894,0 1.18713,-0.186593 1.77148,-0.557475 0.582047,-0.370882 1.0397,-0.881517 1.37372,-1.53421 0.334792,-0.651155 0.50142,-1.31997 0.50142,-2.00798 0,-0.974429 -0.224986,-1.86055 -0.674191,-2.65837 -0.451509,-0.795515 -1.03586,-1.42056 -1.75305,-1.87054 -0.719496,-0.452276 -1.38217,-0.676495 -1.99263,-0.676495 -0.86232,0 -1.64401,0.376257 -2.34738,1.12647 -0.701067,0.750978 -1.05352,1.68625 -1.05352,2.8012 0,1.42671 0.42924,2.6791 1.28772,3.75873 0.857713,1.07732 1.81909,1.61867 2.88643,1.61867zm5.06335 -9.58457l0 -0.102895 2.46794 0c0.626583,0 1.07809,0.0145896 1.35836,0.0468402 0.27797,0.0330185 0.565921,0.137449 0.85848,0.317131 0.294095,0.179682 0.513706,0.424633 0.664209,0.73255 0.149735,0.307917 0.224219,0.683406 0.224219,1.13107 0,0.508331 -0.13361,0.99593 -0.399293,1.45742 -0.265684,0.461491 -0.640405,0.853105 -1.12416,1.17254l0.614297 1.09191c0.132842,0.274898 0.489902,0.872302 1.06581,1.79759 0.576672,0.92375 1.02204,1.48814 1.3361,1.69085 0.314059,0.202718 0.62044,0.303309 0.914535,0.303309 0.291791,0 0.626583,-0.128235 1.00361,-0.389311l0.03609 0.137449c-0.471473,0.445366 -1.08577,0.668816 -1.84136,0.668816 -0.503724,0 -0.936803,-0.172003 -1.30001,-0.515242 -0.360132,-0.344774 -0.990554,-1.28926 -1.88743,-2.83805 -0.00844659,-0.00921446 -0.0122859,-0.0184289 -0.0122859,-0.0276434l-0.874606 -1.55801 -0.771711 0.0284113 -0.702603 0 0 3.85241c0,0.31022 0.03609,0.531367 0.106734,0.666513 0.0706442,0.132842 0.24188,0.200414 0.513706,0.200414l0 0.095984 -2.25063 0 0 -0.095984c0.280273,-0.0138217 0.453044,-0.0813944 0.523688,-0.205022 0.0691084,-0.123627 0.102895,-0.373186 0.102895,-0.750978l0 -8.00122c0,-0.258773 -0.029947,-0.473009 -0.0883052,-0.64578 -0.0583582,-0.170468 -0.23804,-0.258773 -0.538278,-0.261076zm1.63019 0.163557l0 4.71934 0.908392 0c0.717192,0 1.24702,-0.195807 1.59333,-0.587422 0.347078,-0.391615 0.520617,-0.904553 0.520617,-1.54342 0,-0.618137 -0.172003,-1.20556 -0.509867,-1.75843 -0.340935,-0.555171 -0.941411,-0.830069 -1.79912,-0.830069l-0.713353 0zm7.82077 -0.266451l2.49098 0 0 0.102895c-0.272594,-0.0138217 -0.461491,0.0330185 -0.572832,0.139753 -0.110574,0.105198 -0.165092,0.384704 -0.165092,0.834676l0 3.86239 5.16394 -4.48898c0.102895,-0.0821623 0.15511,-0.156646 0.15511,-0.226522 0,-0.0813944 -0.116716,-0.121324 -0.348614,-0.121324l0 -0.102895 1.87591 0 0 0.102895c-0.471473,0.0115181 -0.93066,0.211933 -1.37987,0.599708l-4.49896 3.88697 4.48667 3.9507c0.00383936,0.00460723 0.00998233,0.00921446 0.0184289,0.0138217 0.00767872,0.00230361 0.0138217,0.00921446 0.017661,0.0184289 0.00614297,0.00460723 0.0145896,0.00691084 0.0222683,0.00691084 0.590493,0.511403 1.04738,0.869999 1.37219,1.07732 0.326345,0.208093 0.628119,0.31022 0.912232,0.31022l0 0.095984 -2.95707 0 0 -0.095984c0.26338,0 0.396222,-0.0345542 0.396222,-0.102127 0,-0.0583582 -0.10827,-0.184289 -0.325578,-0.375489l-4.91054 -4.32619 0 3.73877c0,0.435383 0.0261076,0.706442 0.0806265,0.806265 0.0522153,0.100591 0.122859,0.170468 0.211933,0.215004 0.0883052,0.0414651 0.233433,0.0583582 0.43308,0.0437687l0 0.095984 -2.47869 0 0 -0.095984c0.330953,0.0191968 0.538278,-0.0391615 0.622744,-0.174307 0.0844659,-0.132842 0.127467,-0.417722 0.127467,-0.849266l0 -7.81002c0,-0.447669 -0.0430008,-0.736389 -0.127467,-0.866927 -0.0844659,-0.132842 -0.291791,-0.186593 -0.622744,-0.163557l0 -0.102895zm14.2425 0.128235l0.413115 1.25701 -0.0706442 0.0145896c0,-0.00460723 -0.110574,-0.138217 -0.327881,-0.4039 -0.218076,-0.26338 -0.467634,-0.466098 -0.749443,-0.611226 -0.282577,-0.142056 -0.59894,-0.214236 -0.952929,-0.214236 -0.595101,0 -1.06657,0.195807 -1.41442,0.590493 -0.348614,0.393918 -0.522153,0.869231 -0.522153,1.4244 0,0.368578 0.0806265,0.690317 0.243415,0.967518 0.16586,0.275666 0.506027,0.532135 1.02588,0.767872 0.892267,0.347078 1.50272,0.605851 1.83137,0.783229 0.330185,0.175075 0.646548,0.470705 0.951393,0.890731 0.305613,0.420026 0.456884,0.956 0.456884,1.61176 0,0.274898 -0.0261076,0.533671 -0.0821623,0.783229 -0.0545189,0.247255 -0.143592,0.487598 -0.266451,0.715656 -0.120556,0.231129 -0.267987,0.440758 -0.439223,0.629655 -0.171235,0.188896 -0.344006,0.334024 -0.521385,0.431544 -0.177378,0.0982876 -0.457651,0.170468 -0.838516,0.221915 -0.3824,0.0483759 -0.634262,0.0744835 -0.755586,0.0744835l-2.32051 0 0 -2.92406 0.0883052 0c0.00844659,0.969822 0.20579,1.64632 0.590493,2.02872 0.386239,0.3824 0.987483,0.5736 1.80066,0.5736 0.73946,0 1.30154,-0.202718 1.68471,-0.606619 0.384704,-0.405436 0.575904,-0.893035 0.575904,-1.46203 0,-0.347078 -0.066037,-0.641173 -0.201182,-0.886124 -0.132842,-0.242647 -0.320202,-0.456884 -0.559778,-0.641173 -0.240344,-0.184289 -0.695692,-0.408508 -1.36451,-0.674191 -0.664209,-0.267987 -1.13184,-0.503724 -1.40213,-0.706442 -0.267987,-0.202718 -0.493741,-0.508331 -0.674959,-0.916839 -0.181218,-0.405436 -0.271827,-0.823158 -0.271827,-1.24472 0,-0.77939 0.231897,-1.43208 0.69262,-1.96114 0.463794,-0.529831 1.07041,-0.793211 1.82139,-0.793211 0.292559,0 0.606619,0.0399293 0.94525,0.116716 0.338631,0.0767872 0.527528,0.128235 0.565921,0.148967 0.0161253,0.00921446 0.0322506,0.0138217 0.0483759,0.0138217zm1.63403 -0.0253398l0 -0.102895 2.48023 0c0.880749,0 1.52115,0.112109 1.92045,0.340935 0.400829,0.228826 0.691084,0.510635 0.873838,0.850802 0.183521,0.338631 0.27413,0.786301 0.27413,1.34147 0,0.853105 -0.254166,1.49197 -0.761729,1.92121 -0.507563,0.426937 -1.19634,0.631958 -2.06481,0.613529l0 -0.095984c0.549796,0 0.997465,-0.195807 1.34147,-0.587422 0.344774,-0.391615 0.518313,-0.904553 0.518313,-1.54342 0,-0.496813 -0.0844659,-0.937571 -0.251862,-1.32227 -0.167396,-0.385472 -0.403133,-0.676495 -0.705674,-0.876909 -0.301774,-0.201182 -0.765568,-0.301006 -1.38601,-0.301006l-0.62044 0 0 8.61398c0,0.487598 0.0460723,0.77939 0.141288,0.872302 0.0944482,0.0936803 0.27413,0.139753 0.53751,0.139753l0 0.095984 -2.2967 0 0 -0.095984c0.409276,0 0.614297,-0.21654 0.614297,-0.648084l0 -8.33678c0,-0.354757 -0.0399293,-0.589725 -0.118252,-0.706442 -0.0790908,-0.116716 -0.244183,-0.172771 -0.496045,-0.172771zm9.99539 5.32903l-2.53858 0 -1.31536 3.80327c-0.0906089,0.274898 -0.137449,0.443062 -0.137449,0.506027 0,0.151271 0.0967518,0.225754 0.290255,0.225754l0 0.095984 -1.2931 0 0 -0.095984c0.172771,0 0.320202,-0.0483759 0.436919,-0.146663 0.11902,-0.0982876 0.248023,-0.351685 0.388543,-0.762497l3.15365 -9.20908 0.146663 0 3.10451 8.89656c0,0.0445366 0.0806265,0.258773 0.240344,0.643476 0.158949,0.384704 0.402365,0.578207 0.72871,0.578207l0 0.095984 -2.03025 0 0 -0.095984c0.185057,0 0.27797,-0.083698 0.27797,-0.251862 0,-0.113645 -0.0468402,-0.295631 -0.137449,-0.547492 -0.0161253,-0.0191968 -0.029947,-0.0468402 -0.0399293,-0.0890731 -0.00844659,-0.0437687 -0.0138217,-0.0675727 -0.0184289,-0.0675727l-1.25701 -3.57905zm-2.45642 -0.280273l2.34969 0 -1.17484 -3.43008 -1.17484 3.43008zm13.2151 -4.64793l0.32481 1.06581 -0.0829301 0c-0.842355,-0.969822 -1.83368,-1.45512 -2.97397,-1.45512 -1.18406,0 -2.14159,0.408508 -2.87261,1.22476 -0.729478,0.813944 -1.09422,1.79989 -1.09422,2.95707 0,0.715656 0.163557,1.53881 0.487598,2.46717 0.32481,0.927589 0.836212,1.69239 1.53728,2.2921 0.701067,0.59894 1.54726,0.897642 2.54473,0.897642 0.652691,0 1.2931,-0.121324 1.91968,-0.366275 0.628887,-0.24188 1.09652,-0.568993 1.40213,-0.979036l0.0767872 0.0276434 -0.608154 1.07963c-0.983644,0.244951 -1.62174,0.392382 -1.9143,0.436151 -0.294095,0.0468402 -0.687245,0.0675727 -1.17868,0.0675727 -1.82139,0 -3.12447,-0.486831 -3.91,-1.46433 -0.783997,-0.976733 -1.17715,-2.14543 -1.17715,-3.50687 0,-0.921446 0.201182,-1.80527 0.604315,-2.65684 0.403133,-0.848498 0.985179,-1.51808 1.74537,-2.00722 0.759425,-0.489902 1.62558,-0.734853 2.60308,-0.734853 0.487598,0 0.908392,0.0514474 1.26468,0.153574 0.35706,0.102895 0.652691,0.208093 0.888427,0.317899l0.390847 0.1697c0.00998233,0.00460723 0.0184289,0.00921446 0.0222683,0.0138217zm1.83598 -0.389311l0 -0.114413 5.46571 0 0 1.38524 -0.0883052 0c-0.117484,-0.512938 -0.218076,-0.81548 -0.298702,-0.906856 -0.0806265,-0.0906089 -0.27797,-0.137449 -0.592029,-0.137449l-2.86954 0 0 4.51662 2.66221 0c0.26338,0 0.430776,-0.029947 0.50142,-0.0860016 0.0721799,-0.0560546 0.10827,-0.139753 0.112877,-0.249558l0.0883052 0 0 0.949089 -0.0883052 0c-0.0199647,-0.130538 -0.0668048,-0.218843 -0.138985,-0.265684 -0.0729478,-0.0468402 -0.208093,-0.0675727 -0.403133,-0.0675727l-2.73439 0 0 3.10834c0,0.46917 0.0383936,0.807033 0.112877,1.01436 0.0752514,0.208093 0.193504,0.336328 0.35706,0.389311 0.162789,0.0514474 0.410811,0.077555 0.740996,0.077555l1.53344 0c0.489902,0 0.800122,-0.0191968 0.936803,-0.0560546 0.135145,-0.0399293 0.250326,-0.116716 0.344774,-0.233433 0.0944482,-0.116716 0.167396,-0.370882 0.219611,-0.762497l0.0821623 0 0 1.38754 -5.94486 0 0 -0.095984c0.201182,-0.0138217 0.353989,-0.0583582 0.456884,-0.132842 0.105198,-0.0744835 0.157414,-0.270291 0.157414,-0.585118l0 -8.12946c0,-0.368578 -0.0284113,-0.627351 -0.0829301,-0.778622 -0.0545189,-0.149735 -0.231897,-0.226522 -0.531367,-0.226522zm14.2379 0.0138217l0.413115 1.25701 -0.0706442 0.0145896c0,-0.00460723 -0.110574,-0.138217 -0.328649,-0.4039 -0.217308,-0.26338 -0.466866,-0.466098 -0.749443,-0.611226 -0.281809,-0.142056 -0.598172,-0.214236 -0.952929,-0.214236 -0.594333,0 -1.06581,0.195807 -1.41442,0.590493 -0.348614,0.393918 -0.521385,0.869231 -0.521385,1.4244 0,0.368578 0.0806265,0.690317 0.243415,0.967518 0.165092,0.275666 0.506027,0.532135 1.02588,0.767872 0.892267,0.347078 1.50272,0.605851 1.83137,0.783229 0.330185,0.175075 0.646548,0.470705 0.950625,0.890731 0.306381,0.420026 0.457651,0.956 0.457651,1.61176 0,0.274898 -0.0261076,0.533671 -0.0829301,0.783229 -0.0545189,0.247255 -0.142824,0.487598 -0.265684,0.715656 -0.120556,0.231129 -0.267987,0.440758 -0.439223,0.629655 -0.171235,0.188896 -0.344774,0.334024 -0.522153,0.431544 -0.17661,0.0982876 -0.456884,0.170468 -0.837748,0.221915 -0.383168,0.0483759 -0.63503,0.0744835 -0.755586,0.0744835l-2.32128 0 0 -2.92406 0.0890731 0c0.00767872,0.969822 0.205022,1.64632 0.590493,2.02872 0.386239,0.3824 0.986715,0.5736 1.80066,0.5736 0.73946,0 1.30154,-0.202718 1.68471,-0.606619 0.384704,-0.405436 0.575904,-0.893035 0.575904,-1.46203 0,-0.347078 -0.066037,-0.641173 -0.201182,-0.886124 -0.132842,-0.242647 -0.320202,-0.456884 -0.560546,-0.641173 -0.239576,-0.184289 -0.694924,-0.408508 -1.36374,-0.674191 -0.664977,-0.267987 -1.13261,-0.503724 -1.40213,-0.706442 -0.267987,-0.202718 -0.493741,-0.508331 -0.674959,-0.916839 -0.181218,-0.405436 -0.271827,-0.823158 -0.271827,-1.24472 0,-0.77939 0.231129,-1.43208 0.69262,-1.96114 0.463794,-0.529831 1.07041,-0.793211 1.82139,-0.793211 0.292559,0 0.606619,0.0399293 0.94525,0.116716 0.338631,0.0767872 0.527528,0.128235 0.565921,0.148967 0.0161253,0.00921446 0.0322506,0.0138217 0.0483759,0.0138217zm8.46425 -0.477616l-0.413115 1.21708 -0.0829301 0c0.0161253,-0.0744835 0.0245719,-0.172771 0.0245719,-0.293327 0,-0.105198 -0.0345542,-0.172771 -0.0990554,-0.203486 -0.0645012,-0.0276434 -0.167396,-0.0437687 -0.31022,-0.0437687l-2.2729 0 0 8.61629c0,0.354757 0.0268755,0.597404 0.0744835,0.727942 0.0491438,0.128235 0.117484,0.209629 0.20195,0.244951 0.0844659,0.0345542 0.221915,0.0506795 0.409276,0.0506795l0 0.095984 -2.35583 0 0 -0.095984c0.296398,-0.0230361 0.481456,-0.0883052 0.556707,-0.198111 0.0737157,-0.109038 0.110574,-0.337864 0.110574,-0.683406l0 -8.75834 -2.17845 0c-0.219611,0 -0.362435,0.0161253 -0.430776,0.0437687 -0.0668048,0.0307149 -0.0990554,0.105198 -0.0990554,0.221915 0,0.0606619 0.0145896,0.151271 0.0468402,0.274898l-0.0829301 0 -0.413115 -1.21708 0.0829301 0c0.0706442,0.162789 0.140521,0.26338 0.209629,0.298702 0.0683406,0.0322506 0.217308,0.0506795 0.445366,0.0506795l5.77823 0c0.229594,0 0.392382,-0.0184289 0.492974,-0.0506795 0.101359,-0.0353221 0.173539,-0.135913 0.221915,-0.298702l0.0829301 0zm8.5587 10.4123l-1.64248 0 0 -1.5511c-0.837748,1.0804 -1.83752,1.61867 -2.99777,1.61867 -0.86232,0 -1.54496,-0.279505 -2.05099,-0.839284 -0.506027,-0.559778 -0.757121,-1.33379 -0.757121,-2.32281l0 -6.02626c0,-0.363203 -0.0383936,-0.596636 -0.112877,-0.694924 -0.0752514,-0.0952161 -0.250326,-0.14436 -0.525992,-0.14436l0 -0.102895 2.30899 0 0 0.102895c-0.244183,0 -0.417722,0.0445366 -0.518313,0.132842 -0.0982876,0.0890731 -0.148967,0.298702 -0.148967,0.631958l0 5.52714c0,1.15641 0.234201,1.98188 0.701067,2.47639 0.469937,0.494509 1.0013,0.741764 1.60024,0.741764 0.940643,0 1.77455,-0.489902 2.50173,-1.46971l0 -6.81102c0,-0.597404 -0.0437687,-0.952161 -0.135145,-1.0635 -0.0906089,-0.112109 -0.231129,-0.16586 -0.424633,-0.16586l-0.0829301 0 0 -0.102895 2.28519 0 0 0.102895c-0.284113,0.0161253 -0.461491,0.0721799 -0.534439,0.163557 -0.0721799,0.0906089 -0.10827,0.26338 -0.10827,0.517545l0 8.19933c0,0.324042 0.0122859,0.535974 0.0399293,0.636566 0.0284113,0.0998233 0.0844659,0.181986 0.1697,0.247255 0.0844659,0.0675727 0.22729,0.0998233 0.43308,0.0998233l0 0.095984zm0.956768 -9.96006l0 -0.102895 3.98909 0c1.01589,0 1.81755,0.0913767 2.40574,0.275666 0.58819,0.184289 1.10036,0.475313 1.53728,0.872302 0.436919,0.396222 0.783997,0.902249 1.0397,1.52039 0.255701,0.615065 0.3824,1.30538 0.3824,2.06634 0,0.731782 -0.132842,1.45281 -0.398525,2.16156 -0.265684,0.708746 -0.626583,1.31997 -1.08193,1.83061 -0.457651,0.512938 -0.939107,0.86232 -1.44437,1.05122 -0.506027,0.188896 -1.28772,0.28488 -2.34508,0.28488l-4.08431 0 0 -0.095984 0.105198 0c0.213468,0 0.352453,-0.0975197 0.41849,-0.295631 0.0668048,-0.198111 0.100591,-0.557475 0.100591,-1.07732l0 -7.32933c0,-0.54826 -0.0399293,-0.876909 -0.120556,-0.991322 -0.0806265,-0.114413 -0.249558,-0.170468 -0.503724,-0.170468zm2.96168 0.107502l-1.33379 0 0 7.81002c0,0.491438 0.0729478,0.857713 0.215772,1.09575 0.142824,0.240344 0.388543,0.412347 0.735621,0.519849 0.34631,0.107502 0.81164,0.161253 1.39753,0.161253 1.63019,0 2.77432,-0.485295 3.43315,-1.45281 0.658834,-0.968286 0.987483,-2.02181 0.987483,-3.16747 0,-1.34301 -0.451509,-2.50633 -1.35376,-3.49074 -0.903017,-0.983644 -2.26292,-1.47585 -4.08201,-1.47585zm9.51393 -0.210397l0 0.102895c-0.112877,-0.0138217 -0.239576,0.00460723 -0.380864,0.0606619 -0.138985,0.053751 -0.221915,0.132842 -0.248023,0.23804 -0.023804,0.104431 -0.0383936,0.353989 -0.0383936,0.746371l0 7.72556c0,0.420026 0.0161253,0.676495 0.0445366,0.769407 0.029947,0.0936803 0.0867695,0.170468 0.171235,0.231129 0.0844659,0.0629655 0.235737,0.0929125 0.451509,0.0929125l0 0.095984 -2.31897 0 0 -0.095984c0.291791,0 0.471473,-0.0652691 0.543653,-0.195807 0.0706442,-0.128235 0.105198,-0.423865 0.105198,-0.88382l0 -7.65107c0,-0.477616 -0.0383936,-0.793211 -0.116716,-0.939875 -0.0790908,-0.146663 -0.256469,-0.211933 -0.532135,-0.193504l0 -0.102895 2.31897 0zm5.67918 -0.151271c1.22092,0 2.21838,0.42924 2.99393,1.28695 0.774015,0.860784 1.16256,1.9312 1.16256,3.21585 0,1.654 -0.449205,3.04384 -1.34531,4.17492 -0.899178,1.128 -2.08784,1.69239 -3.57291,1.69239 -1.20249,0 -2.18997,-0.45458 -2.95554,-1.36604 -0.767104,-0.909928 -1.15181,-2.00338 -1.15181,-3.27881 0,-0.860784 0.185057,-1.7446 0.555939,-2.65146 0.368578,-0.905321 0.926821,-1.64401 1.67012,-2.21531 0.7433,-0.571296 1.62405,-0.85848 2.64301,-0.85848zm-0.0337864 9.83874c0.598172,0 1.18636,-0.186593 1.77071,-0.557475 0.582047,-0.370882 1.0397,-0.881517 1.37449,-1.53421 0.334024,-0.651155 0.50142,-1.31997 0.50142,-2.00798 0,-0.974429 -0.225754,-1.86055 -0.674959,-2.65837 -0.451509,-0.795515 -1.03586,-1.42056 -1.75305,-1.87054 -0.718728,-0.452276 -1.38217,-0.676495 -1.99263,-0.676495 -0.86232,0 -1.64401,0.376257 -2.34662,1.12647 -0.701835,0.750978 -1.05429,1.68625 -1.05429,2.8012 0,1.42671 0.42924,2.6791 1.28772,3.75873 0.85848,1.07732 1.81909,1.61867 2.8872,1.61867z"/>
 </g>
</svg>