<svg xmlns="http://www.w3.org/2000/svg" viewBox="4 7 127 105" aria-labelledby="title">
  <title>Workspace Studio W</title>
  <path fill="#FFFFFF" d="M93.4861 111.389l-1.36297 0 -24.2724 -78.0933 -23.7841 78.0933 -1.36297 0 -28.5449 -91.4335c-1.15949,-3.70268 -2.40037,-6.57452 -3.70268,-8.56868 -1.30231,-1.97036 -3.21508,-2.96706 -5.71757,-2.96706l0 -1.04431 20.7325 0 0 1.04431c-2.01413,0 -3.03156,0.854641 -3.03156,2.56316 0,1.02127 0.305613,2.56392 0.956,4.65253l23.235 74.4851 19.1453 -62.9255 -1.85211 -5.98095c-1.62712,-5.2461 -3.19358,-8.6877 -4.67941,-10.3256 -1.48506,-1.66167 -3.17361,-2.46871 -5.04568,-2.46871l0 -1.04431 20.5083 0 0 1.04431c-1.97343,0 -2.97013,0.996697 -2.97013,2.96706 0,0.617369 0.406972,2.20763 1.24088,4.81839l23.1943 74.2002 23.1936 -75.5294c0.0207325,-0.189664 0.0614297,-0.308684 0.102127,-0.356292l0.895338 -3.53682c0,-1.70851 -1.01743,-2.56316 -3.09299,-2.56316l0 -1.04431 12.8181 0 0 1.04431c-3.49996,0.023804 -6.2666,3.34715 -8.28073,9.92167l-28.3214 93.0476z"/>
</svg>
